<svg xmlns="http://www.w3.org/2000/svg" viewBox="0 0 256 256" role="img" aria-labelledby="title desc">
  <title id="title">Nest Egg</title>
  <desc id="desc">Logo famiglia sotto un tetto</desc>
  <rect width="256" height="256" fill="#F4F4F2"/>
  <g fill="none" stroke="none">
    <path d="M57 103 L128 50 L199 103 L183 103 L128 63 L73 103 Z" fill="#A9B89F"/>
    <rect x="119" y="86" width="18" height="18" rx="2" fill="#A9B89F"/>
    <rect x="141" y="86" width="18" height="18" rx="2" fill="#A9B89F"/>
    <rect x="119" y="108" width="18" height="18" rx="2" fill="#A9B89F"/>
    <rect x="141" y="108" width="18" height="18" rx="2" fill="#A9B89F"/>
    <circle cx="92" cy="137" r="19" fill="#5F847D"/>
    <path d="M63 211 C56 160, 71 145, 92 145 C113 145, 128 160, 121 211 Z" fill="#5F847D"/>
    <circle cx="164" cy="138" r="19" fill="#A7B89A"/>
    <path d="M135 211 C128 160, 143 145, 164 145 C185 145, 200 160, 193 211 Z" fill="#A7B89A"/>
    <circle cx="128" cy="156" r="14" fill="#719387"/>
    <path d="M107 212 C102 175, 113 167, 128 167 C143 167, 154 175, 149 212 Z" fill="#719387"/>
  </g>
</svg>
